<svg id="dsim_logo" xmlns="http://www.w3.org/2000/svg" viewBox="0 0 49 49"><defs><style>.cls-1{fill:#292d8a;}</style></defs><path class="cls-1" d="M1363.05,724h-49V675h49Zm-35.6-42c-2.09,12-4.16,23.46-6.14,34.86,5.12,0,10.22.35,14.69-.15,10.57-1.17,19-9.41,19.57-19.47.3-5.62-.61-10.56-6.42-13.37C1345.13,682,1341.7,682,1327.45,682Z" transform="translate(-1314.05 -674.99)"/><path class="cls-1" d="M1329.74,711.38c1.5-8.52,2.87-16.66,4.14-23.89.67,0,4,.19,4.31.21,7.72.47,9.81,5.34,9.81,8.26,0,4.38-1.23,6.72-3.7,9.66S1337.27,711.38,1329.74,711.38Z" transform="translate(-1314.05 -674.99)"/></svg>